<?xml version="1.0" standalone="no"?>
<!DOCTYPE svg PUBLIC "-//W3C//DTD SVG 20010904//EN"
 "http://www.w3.org/TR/2001/REC-SVG-20010904/DTD/svg10.dtd">
<svg version="1.0" xmlns="http://www.w3.org/2000/svg"
 width="128.000000pt" height="128.000000pt" viewBox="0 0 128.000000 128.000000"
 preserveAspectRatio="xMidYMid meet">

<g transform="translate(0.000000,128.000000) scale(0.100000,-0.100000)"
fill="#000000" stroke="none">
<path d="M842 980 c-18 -4 -53 -15 -77 -24 l-44 -17 32 -43 c51 -66 70 -126
65 -209 -4 -91 -33 -153 -108 -230 l-56 -57 52 0 c90 0 176 33 242 95 l58 54
70 -38 c38 -21 69 -44 69 -51 0 -22 -132 -87 -202 -100 -78 -15 -179 -8 -251
16 -52 17 -56 17 -100 0 -63 -24 -195 -32 -263 -16 -30 7 -81 26 -114 42 -59
29 -57 27 157 -188 l217 -217 85 7 c310 23 548 240 596 542 l11 68 -108 108
c-59 59 -112 108 -118 108 -6 0 -46 36 -90 80 -44 44 -82 80 -85 79 -3 -1 -20
-5 -38 -9z"/>
<path d="M379 938 c-6 -24 -12 -58 -13 -76 -1 -29 3 -35 34 -46 19 -7 42 -16
51 -20 12 -5 19 1 27 23 6 17 25 51 41 75 17 25 28 47 24 49 -15 9 -117 37
-134 37 -13 0 -22 -13 -30 -42z"/>
</g>
</svg>
